<svg xmlns="http://www.w3.org/2000/svg" viewBox="0 0 64 64"><g data-name="man-working-laptop-work at home"><path fill="#78b9eb" d="M11 37v11a5.931 5.931 0 0 0-4 1.54V41a4 4 0 0 1 4-4zm46 4v8.54A5.931 5.931 0 0 0 53 48V37a4 4 0 0 1 4 4zm-2 13v1a2.006 2.006 0 0 1-2 2H11a2.006 2.006 0 0 1-2-2v-1a1 1 0 0 1 1-1h44a1 1 0 0 1 1 1zm-9-36v2a2.006 2.006 0 0 1-2 2h-2v-6h2a2.006 2.006 0 0 1 2 2zm-24-2v6h-2a2.006 2.006 0 0 1-2-2v-2a2.006 2.006 0 0 1 2-2zm20-3H17a9.986 9.986 0 0 1 16.06-7.94A7.3 7.3 0 0 1 34 5a8 8 0 0 1 8 8z"/><path fill="#006df0" d="M61 56h-1.3a7.124 7.124 0 0 0 .3-2 6.952 6.952 0 0 0-2-4.89V41a5.017 5.017 0 0 0-4-4.9V33a3.009 3.009 0 0 0-3-3H40.48A10.928 10.928 0 0 0 43 23h1a3.009 3.009 0 0 0 3-3v-2a3.009 3.009 0 0 0-3-3h-1v-2a9.014 9.014 0 0 0-9-9c-.22 0-.44.01-.65.03A10.883 10.883 0 0 0 27 2a11.007 11.007 0 0 0-11 11 1 1 0 0 0 1 1h4v1h-1a3.009 3.009 0 0 0-3 3v2a3.009 3.009 0 0 0 3 3h1a11.03 11.03 0 0 0 2.53 7H13a3.009 3.009 0 0 0-3 3v3.1A5.017 5.017 0 0 0 6 41v8.11A6.952 6.952 0 0 0 4 54a7.062 7.062 0 0 0 .29 2H3a1 1 0 0 0-1 1v4a1 1 0 0 0 1 1h58a1 1 0 0 0 1-1v-4a1 1 0 0 0-1-1ZM43 17h1a1 1 0 0 1 1 1v2a1 1 0 0 1-1 1h-1Zm-22 4h-1a1 1 0 0 1-1-1v-2a1 1 0 0 1 1-1h1Zm33 17.17A3.014 3.014 0 0 1 56 41v6.69a6.739 6.739 0 0 0-2-.61Zm0 10.93a5.017 5.017 0 0 1 4 4.9 5.085 5.085 0 0 1-.42 2h-1.76a3 3 0 0 0 .18-1v-1a2.006 2.006 0 0 0-2-2ZM18.06 12A9.008 9.008 0 0 1 27 4a8.9 8.9 0 0 1 5.45 1.85 1.009 1.009 0 0 0 .73.2A7.368 7.368 0 0 1 34 6a7.013 7.013 0 0 1 6.93 6ZM23 23v-9h18v9a8.942 8.942 0 0 1-2.64 6.36 7.548 7.548 0 0 1-.74.64H26.37A9.039 9.039 0 0 1 23 23ZM12 33a1 1 0 0 1 1-1h38a1 1 0 0 1 1 1v19H12Zm42 21v1a1 1 0 0 1-1 1H11a1 1 0 0 1-1-1v-1ZM8 41a3.014 3.014 0 0 1 2-2.83v8.91a6.739 6.739 0 0 0-2 .61Zm2 8.1V52a2.006 2.006 0 0 0-2 2v1a3 3 0 0 0 .18 1H6.42A5 5 0 0 1 10 49.1ZM60 60H4v-2h56Z"/><path fill="#006df0" d="M32 46a4 4 0 0 0 4-4h-2a2 2 0 1 1-2-2v-2a4 4 0 0 0 0 8zm-4-23a1 1 0 0 0 1-1v-2a1 1 0 0 0-2 0v2a1 1 0 0 0 1 1zm8-4a1 1 0 0 0-1 1v2a1 1 0 0 0 2 0v-2a1 1 0 0 0-1-1zm-4 8c-1.936 0-3-.751-3-1h-2c0 1.71 2.149 3 5 3s5-1.29 5-3h-2c0 .249-1.064 1-3 1z"/></g></svg>